<?xml version="1.0"?>
<svg version="1.1" xmlns="http://www.w3.org/2000/svg" xmlns:xlink="http://www.w3.org/1999/xlink" width="760" height="200">
    <desc iVinci="yes" version="4.6" gridStep="20" showGrid="no" snapToGrid="no" codePlatform="0"/>
    <g id="Layer1" name="Layer 1" opacity="1">
        <g id="Shape1">
            <desc shapeID="1" type="2" basicInfo-basicType="0" basicInfo-roundedRectRadius="12" basicInfo-polygonSides="6" basicInfo-starPoints="5" bounding="rect(-239.581,-17.6936,479.163,35.3873)" text="videographers on demand" font-familyName="Helvetica" font-pixelSize="30" font-bold="0" font-underline="0" font-alignment="1" strokeStyle="0" markerStart="0" markerEnd="0" shadowEnabled="0" shadowOffsetX="0" shadowOffsetY="2" shadowBlur="4" shadowOpacity="160" blurEnabled="0" blurRadius="4" transform="matrix(1,0,0,1,336.33,129.94)" pers-center="0,0" pers-size="0,0" pers-start="0,0" pers-end="0,0" locked="0" mesh="" flag=""/>
            <path id="shapePath1" d="M165.396,122.658 L169.586,135.431 L173.966,122.658 L176.851,122.658 L170.934,138.346 L168.121,138.346 L162.335,122.658 L165.396,122.658 M179.107,122.731 L181.788,122.731 L181.788,138.346 L179.107,138.346 L179.107,122.731 M179.107,116.828 L181.788,116.828 L181.788,119.816 L179.107,119.816 L179.107,116.828 M187.434,130.685 C187.434,132.365 187.79,133.771 188.503,134.904 C189.216,136.037 190.358,136.603 191.931,136.603 C193.151,136.603 194.155,136.078 194.941,135.028 C195.727,133.979 196.12,132.472 196.12,130.509 C196.12,128.527 195.715,127.06 194.904,126.107 C194.094,125.155 193.093,124.679 191.901,124.679 C190.573,124.679 189.496,125.187 188.671,126.203 C187.846,127.218 187.434,128.712 187.434,130.685 M191.403,122.379 C192.604,122.379 193.61,122.633 194.421,123.141 C194.89,123.434 195.422,123.947 196.017,124.679 L196.017,116.754 L198.552,116.754 L198.552,138.346 L196.179,138.346 L196.179,136.164 C195.563,137.13 194.836,137.829 193.996,138.258 C193.156,138.688 192.194,138.903 191.11,138.903 C189.362,138.903 187.849,138.168 186.569,136.698 C185.29,135.229 184.65,133.273 184.65,130.832 C184.65,128.546 185.234,126.566 186.401,124.892 C187.568,123.217 189.235,122.379 191.403,122.379 M208.969,122.306 C210.082,122.306 211.161,122.567 212.206,123.09 C213.251,123.612 214.047,124.289 214.594,125.119 C215.121,125.91 215.473,126.833 215.648,127.887 C215.805,128.61 215.883,129.762 215.883,131.344 L204.384,131.344 C204.433,132.936 204.809,134.213 205.512,135.175 C206.215,136.137 207.304,136.618 208.778,136.618 C210.155,136.618 211.254,136.164 212.074,135.255 C212.543,134.728 212.875,134.118 213.07,133.424 L215.663,133.424 C215.595,134.001 215.368,134.643 214.982,135.351 C214.596,136.059 214.164,136.637 213.685,137.086 C212.885,137.868 211.893,138.395 210.712,138.669 C210.077,138.825 209.359,138.903 208.559,138.903 C206.605,138.903 204.95,138.192 203.593,136.772 C202.235,135.351 201.557,133.361 201.557,130.802 C201.557,128.283 202.24,126.237 203.607,124.665 C204.975,123.092 206.762,122.306 208.969,122.306 M213.173,129.25 C213.065,128.107 212.816,127.194 212.426,126.51 C211.703,125.241 210.497,124.606 208.808,124.606 C207.597,124.606 206.581,125.043 205.761,125.917 C204.94,126.791 204.506,127.902 204.457,129.25 L213.173,129.25 M225.333,136.647 C227.081,136.647 228.28,135.985 228.929,134.662 C229.579,133.339 229.903,131.867 229.903,130.246 C229.903,128.781 229.669,127.589 229.2,126.671 C228.458,125.226 227.179,124.503 225.362,124.503 C223.751,124.503 222.579,125.119 221.847,126.349 C221.114,127.58 220.748,129.064 220.748,130.802 C220.748,132.472 221.114,133.864 221.847,134.977 C222.579,136.09 223.741,136.647 225.333,136.647 M225.435,122.204 C227.457,122.204 229.166,122.878 230.562,124.225 C231.959,125.573 232.657,127.555 232.657,130.172 C232.657,132.702 232.042,134.792 230.811,136.442 C229.581,138.092 227.672,138.918 225.084,138.918 C222.926,138.918 221.212,138.188 219.942,136.728 C218.673,135.268 218.038,133.307 218.038,130.846 C218.038,128.21 218.707,126.11 220.045,124.547 C221.383,122.985 223.18,122.204 225.435,122.204 M241.316,122.379 C242.547,122.379 243.621,122.682 244.539,123.288 C245.037,123.629 245.545,124.128 246.062,124.782 L246.062,122.804 L248.494,122.804 L248.494,137.072 C248.494,139.064 248.201,140.636 247.615,141.789 C246.521,143.918 244.456,144.982 241.419,144.982 C239.729,144.982 238.309,144.604 237.156,143.847 C236.004,143.09 235.359,141.906 235.223,140.294 L237.903,140.294 C238.03,140.998 238.284,141.54 238.665,141.92 C239.261,142.506 240.198,142.799 241.477,142.799 C243.499,142.799 244.822,142.086 245.447,140.661 C245.818,139.821 245.989,138.322 245.96,136.164 C245.433,136.964 244.798,137.56 244.056,137.951 C243.313,138.341 242.332,138.537 241.111,138.537 C239.412,138.537 237.925,137.934 236.651,136.728 C235.376,135.522 234.739,133.527 234.739,130.744 C234.739,128.117 235.381,126.066 236.665,124.591 C237.95,123.117 239.5,122.379 241.316,122.379 M246.062,130.436 C246.062,128.493 245.662,127.052 244.861,126.115 C244.06,125.177 243.04,124.709 241.8,124.709 C239.944,124.709 238.675,125.578 237.991,127.316 C237.63,128.244 237.449,129.46 237.449,130.963 C237.449,132.731 237.808,134.076 238.526,134.999 C239.244,135.922 240.208,136.383 241.419,136.383 C243.313,136.383 244.646,135.529 245.418,133.82 C245.848,132.853 246.062,131.725 246.062,130.436 M252.524,122.658 L255.029,122.658 L255.029,125.368 C255.234,124.84 255.737,124.198 256.538,123.441 C257.339,122.685 258.262,122.306 259.307,122.306 C259.355,122.306 259.438,122.311 259.556,122.321 C259.673,122.331 259.873,122.35 260.156,122.379 L260.156,125.163 C260,125.133 259.856,125.114 259.724,125.104 C259.592,125.094 259.448,125.089 259.292,125.089 C257.964,125.089 256.943,125.517 256.23,126.371 C255.517,127.226 255.161,128.21 255.161,129.323 L255.161,138.346 L252.524,138.346 L252.524,122.658 M264.457,134.171 C264.457,134.933 264.735,135.534 265.292,135.973 C265.849,136.413 266.508,136.632 267.269,136.632 C268.197,136.632 269.096,136.418 269.965,135.988 C271.43,135.275 272.162,134.108 272.162,132.487 L272.162,130.363 C271.84,130.568 271.425,130.739 270.917,130.876 C270.409,131.012 269.911,131.11 269.423,131.169 L267.826,131.374 C266.869,131.501 266.151,131.701 265.673,131.974 C264.862,132.433 264.457,133.166 264.457,134.171 M270.844,128.839 C271.449,128.761 271.854,128.507 272.059,128.078 C272.177,127.843 272.235,127.506 272.235,127.067 C272.235,126.169 271.915,125.517 271.276,125.111 C270.636,124.706 269.721,124.503 268.529,124.503 C267.152,124.503 266.176,124.875 265.6,125.617 C265.277,126.027 265.067,126.637 264.97,127.448 L262.509,127.448 C262.558,125.514 263.185,124.169 264.391,123.412 C265.597,122.655 266.996,122.277 268.588,122.277 C270.434,122.277 271.933,122.628 273.085,123.332 C274.227,124.035 274.799,125.128 274.799,126.613 L274.799,135.651 C274.799,135.924 274.855,136.144 274.967,136.31 C275.079,136.476 275.316,136.559 275.678,136.559 C275.795,136.559 275.927,136.552 276.073,136.537 C276.22,136.523 276.376,136.501 276.542,136.471 L276.542,138.419 C276.132,138.537 275.819,138.61 275.604,138.639 C275.39,138.669 275.097,138.683 274.725,138.683 C273.817,138.683 273.158,138.361 272.748,137.716 C272.533,137.375 272.382,136.891 272.294,136.266 C271.757,136.969 270.985,137.58 269.979,138.097 C268.974,138.615 267.865,138.874 266.654,138.874 C265.199,138.874 264.01,138.432 263.087,137.548 C262.164,136.664 261.703,135.558 261.703,134.23 C261.703,132.775 262.157,131.647 263.065,130.846 C263.974,130.045 265.165,129.552 266.64,129.367 L270.844,128.839 M285.728,136.574 C286.959,136.574 287.982,136.059 288.797,135.028 C289.613,133.998 290.02,132.458 290.02,130.407 C290.02,129.157 289.84,128.083 289.478,127.184 C288.795,125.456 287.545,124.591 285.728,124.591 C283.902,124.591 282.652,125.504 281.978,127.331 C281.617,128.307 281.436,129.547 281.436,131.051 C281.436,132.262 281.617,133.293 281.978,134.142 C282.662,135.763 283.912,136.574 285.728,136.574 M278.902,122.731 L281.466,122.731 L281.466,124.811 C281.993,124.098 282.569,123.546 283.194,123.156 C284.083,122.57 285.128,122.277 286.329,122.277 C288.106,122.277 289.615,122.958 290.855,124.32 C292.096,125.683 292.716,127.628 292.716,130.158 C292.716,133.576 291.822,136.017 290.035,137.482 C288.902,138.41 287.584,138.874 286.08,138.874 C284.898,138.874 283.907,138.615 283.106,138.097 C282.638,137.804 282.115,137.301 281.539,136.588 L281.539,144.601 L278.902,144.601 L278.902,122.731 M295.779,116.754 L298.416,116.754 L298.416,124.782 C299.041,123.991 299.602,123.434 300.1,123.112 C300.95,122.555 302.01,122.277 303.279,122.277 C305.555,122.277 307.098,123.073 307.908,124.665 C308.348,125.534 308.567,126.74 308.567,128.283 L308.567,138.346 L305.857,138.346 L305.857,128.459 C305.857,127.306 305.711,126.461 305.418,125.924 C304.939,125.065 304.041,124.635 302.723,124.635 C301.629,124.635 300.638,125.011 299.749,125.763 C298.86,126.515 298.416,127.936 298.416,130.026 L298.416,138.346 L295.779,138.346 L295.779,116.754 M318.984,122.306 C320.098,122.306 321.177,122.567 322.222,123.09 C323.267,123.612 324.062,124.289 324.609,125.119 C325.137,125.91 325.488,126.833 325.664,127.887 C325.82,128.61 325.898,129.762 325.898,131.344 L314.399,131.344 C314.448,132.936 314.824,134.213 315.527,135.175 C316.23,136.137 317.319,136.618 318.794,136.618 C320.171,136.618 321.269,136.164 322.09,135.255 C322.559,134.728 322.891,134.118 323.086,133.424 L325.679,133.424 C325.61,134.001 325.383,134.643 324.997,135.351 C324.612,136.059 324.18,136.637 323.701,137.086 C322.9,137.868 321.909,138.395 320.727,138.669 C320.093,138.825 319.375,138.903 318.574,138.903 C316.621,138.903 314.966,138.192 313.608,136.772 C312.251,135.351 311.572,133.361 311.572,130.802 C311.572,128.283 312.256,126.237 313.623,124.665 C314.99,123.092 316.777,122.306 318.984,122.306 M323.188,129.25 C323.081,128.107 322.832,127.194 322.441,126.51 C321.719,125.241 320.513,124.606 318.823,124.606 C317.612,124.606 316.597,125.043 315.776,125.917 C314.956,126.791 314.521,127.902 314.473,129.25 L323.188,129.25 M329.196,122.658 L331.701,122.658 L331.701,125.368 C331.906,124.84 332.409,124.198 333.21,123.441 C334.011,122.685 334.934,122.306 335.978,122.306 C336.027,122.306 336.11,122.311 336.227,122.321 C336.345,122.331 336.545,122.35 336.828,122.379 L336.828,125.163 C336.672,125.133 336.528,125.114 336.396,125.104 C336.264,125.094 336.12,125.089 335.964,125.089 C334.636,125.089 333.615,125.517 332.902,126.371 C332.189,127.226 331.833,128.21 331.833,129.323 L331.833,138.346 L329.196,138.346 L329.196,122.658 M340.675,133.424 C340.753,134.303 340.973,134.977 341.334,135.446 C341.998,136.295 343.15,136.72 344.791,136.72 C345.767,136.72 346.627,136.508 347.369,136.083 C348.111,135.658 348.482,135.002 348.482,134.113 C348.482,133.439 348.184,132.926 347.589,132.575 C347.208,132.36 346.456,132.111 345.333,131.828 L343.238,131.3 C341.9,130.968 340.914,130.597 340.279,130.187 C339.146,129.474 338.58,128.488 338.58,127.228 C338.58,125.744 339.115,124.543 340.184,123.625 C341.253,122.707 342.691,122.248 344.498,122.248 C346.861,122.248 348.565,122.941 349.61,124.328 C350.265,125.207 350.582,126.154 350.562,127.169 L348.072,127.169 C348.023,126.574 347.813,126.032 347.442,125.544 C346.837,124.85 345.787,124.503 344.293,124.503 C343.297,124.503 342.542,124.694 342.03,125.075 C341.517,125.456 341.261,125.959 341.261,126.584 C341.261,127.267 341.598,127.814 342.271,128.224 C342.662,128.468 343.238,128.683 344,128.869 L345.743,129.294 C347.638,129.753 348.907,130.197 349.552,130.627 C350.577,131.3 351.09,132.36 351.09,133.805 C351.09,135.202 350.56,136.408 349.5,137.423 C348.441,138.439 346.827,138.947 344.659,138.947 C342.325,138.947 340.672,138.417 339.701,137.357 C338.729,136.298 338.209,134.987 338.141,133.424 L340.675,133.424 M368.661,136.647 C370.409,136.647 371.608,135.985 372.257,134.662 C372.907,133.339 373.231,131.867 373.231,130.246 C373.231,128.781 372.997,127.589 372.528,126.671 C371.786,125.226 370.507,124.503 368.69,124.503 C367.079,124.503 365.907,125.119 365.175,126.349 C364.442,127.58 364.076,129.064 364.076,130.802 C364.076,132.472 364.442,133.864 365.175,134.977 C365.907,136.09 367.069,136.647 368.661,136.647 M368.764,122.204 C370.785,122.204 372.494,122.878 373.891,124.225 C375.287,125.573 375.985,127.555 375.985,130.172 C375.985,132.702 375.37,134.792 374.14,136.442 C372.909,138.092 371,138.918 368.412,138.918 C366.254,138.918 364.54,138.188 363.27,136.728 C362.001,135.268 361.366,133.307 361.366,130.846 C361.366,128.21 362.035,126.11 363.373,124.547 C364.711,122.985 366.508,122.204 368.764,122.204 M379.107,122.658 L381.612,122.658 L381.612,124.884 C382.354,123.966 383.141,123.307 383.971,122.907 C384.801,122.506 385.724,122.306 386.739,122.306 C388.966,122.306 390.47,123.083 391.251,124.635 C391.681,125.485 391.895,126.701 391.895,128.283 L391.895,138.346 L389.215,138.346 L389.215,128.459 C389.215,127.502 389.073,126.73 388.79,126.144 C388.321,125.168 387.472,124.679 386.241,124.679 C385.616,124.679 385.103,124.743 384.703,124.87 C383.98,125.085 383.346,125.514 382.799,126.159 C382.359,126.676 382.074,127.211 381.942,127.763 C381.81,128.315 381.744,129.103 381.744,130.128 L381.744,138.346 L379.107,138.346 L379.107,122.658 M405.777,130.685 C405.777,132.365 406.134,133.771 406.847,134.904 C407.559,136.037 408.702,136.603 410.274,136.603 C411.495,136.603 412.498,136.078 413.285,135.028 C414.071,133.979 414.464,132.472 414.464,130.509 C414.464,128.527 414.059,127.06 413.248,126.107 C412.437,125.155 411.436,124.679 410.245,124.679 C408.917,124.679 407.84,125.187 407.015,126.203 C406.19,127.218 405.777,128.712 405.777,130.685 M409.747,122.379 C410.948,122.379 411.954,122.633 412.765,123.141 C413.233,123.434 413.766,123.947 414.361,124.679 L414.361,116.754 L416.895,116.754 L416.895,138.346 L414.522,138.346 L414.522,136.164 C413.907,137.13 413.18,137.829 412.34,138.258 C411.5,138.688 410.538,138.903 409.454,138.903 C407.706,138.903 406.192,138.168 404.913,136.698 C403.634,135.229 402.994,133.273 402.994,130.832 C402.994,128.546 403.578,126.566 404.745,124.892 C405.912,123.217 407.579,122.379 409.747,122.379 M427.312,122.306 C428.426,122.306 429.505,122.567 430.55,123.09 C431.595,123.612 432.391,124.289 432.937,125.119 C433.465,125.91 433.816,126.833 433.992,127.887 C434.148,128.61 434.226,129.762 434.226,131.344 L422.727,131.344 C422.776,132.936 423.152,134.213 423.855,135.175 C424.559,136.137 425.647,136.618 427.122,136.618 C428.499,136.618 429.598,136.164 430.418,135.255 C430.887,134.728 431.219,134.118 431.414,133.424 L434.007,133.424 C433.938,134.001 433.711,134.643 433.326,135.351 C432.94,136.059 432.508,136.637 432.029,137.086 C431.228,137.868 430.237,138.395 429.056,138.669 C428.421,138.825 427.703,138.903 426.902,138.903 C424.949,138.903 423.294,138.192 421.936,136.772 C420.579,135.351 419.9,133.361 419.9,130.802 C419.9,128.283 420.584,126.237 421.951,124.665 C423.318,123.092 425.105,122.306 427.312,122.306 M431.517,129.25 C431.409,128.107 431.16,127.194 430.769,126.51 C430.047,125.241 428.841,124.606 427.151,124.606 C425.94,124.606 424.925,125.043 424.104,125.917 C423.284,126.791 422.85,127.902 422.801,129.25 L431.517,129.25 M437.451,122.658 L440.059,122.658 L440.059,124.884 C440.684,124.113 441.25,123.551 441.758,123.2 C442.627,122.604 443.613,122.306 444.717,122.306 C445.967,122.306 446.973,122.614 447.734,123.229 C448.164,123.581 448.555,124.098 448.906,124.782 C449.492,123.942 450.181,123.319 450.972,122.914 C451.763,122.509 452.651,122.306 453.638,122.306 C455.747,122.306 457.183,123.068 457.944,124.591 C458.354,125.412 458.559,126.515 458.559,127.902 L458.559,138.346 L455.82,138.346 L455.82,127.448 C455.82,126.403 455.559,125.685 455.037,125.294 C454.514,124.904 453.877,124.709 453.125,124.709 C452.09,124.709 451.199,125.055 450.452,125.749 C449.704,126.442 449.331,127.599 449.331,129.22 L449.331,138.346 L446.65,138.346 L446.65,128.107 C446.65,127.043 446.523,126.266 446.269,125.778 C445.869,125.045 445.122,124.679 444.028,124.679 C443.032,124.679 442.126,125.065 441.311,125.836 C440.496,126.608 440.088,128.004 440.088,130.026 L440.088,138.346 L437.451,138.346 L437.451,122.658 M464.457,134.171 C464.457,134.933 464.735,135.534 465.292,135.973 C465.849,136.413 466.508,136.632 467.269,136.632 C468.197,136.632 469.096,136.418 469.965,135.988 C471.43,135.275 472.162,134.108 472.162,132.487 L472.162,130.363 C471.84,130.568 471.425,130.739 470.917,130.876 C470.409,131.012 469.911,131.11 469.423,131.169 L467.826,131.374 C466.869,131.501 466.151,131.701 465.673,131.974 C464.862,132.433 464.457,133.166 464.457,134.171 M470.844,128.839 C471.449,128.761 471.854,128.507 472.059,128.078 C472.177,127.843 472.235,127.506 472.235,127.067 C472.235,126.169 471.915,125.517 471.276,125.111 C470.636,124.706 469.721,124.503 468.529,124.503 C467.152,124.503 466.176,124.875 465.6,125.617 C465.277,126.027 465.067,126.637 464.97,127.448 L462.509,127.448 C462.558,125.514 463.185,124.169 464.391,123.412 C465.597,122.655 466.996,122.277 468.588,122.277 C470.434,122.277 471.933,122.628 473.085,123.332 C474.227,124.035 474.799,125.128 474.799,126.613 L474.799,135.651 C474.799,135.924 474.855,136.144 474.967,136.31 C475.079,136.476 475.316,136.559 475.678,136.559 C475.795,136.559 475.927,136.552 476.073,136.537 C476.22,136.523 476.376,136.501 476.542,136.471 L476.542,138.419 C476.132,138.537 475.819,138.61 475.604,138.639 C475.39,138.669 475.097,138.683 474.725,138.683 C473.817,138.683 473.158,138.361 472.748,137.716 C472.533,137.375 472.382,136.891 472.294,136.266 C471.757,136.969 470.985,137.58 469.979,138.097 C468.974,138.615 467.865,138.874 466.654,138.874 C465.199,138.874 464.01,138.432 463.087,137.548 C462.164,136.664 461.703,135.558 461.703,134.23 C461.703,132.775 462.157,131.647 463.065,130.846 C463.974,130.045 465.165,129.552 466.64,129.367 L470.844,128.839 M479.107,122.658 L481.612,122.658 L481.612,124.884 C482.354,123.966 483.141,123.307 483.971,122.907 C484.801,122.506 485.724,122.306 486.739,122.306 C488.966,122.306 490.47,123.083 491.251,124.635 C491.681,125.485 491.895,126.701 491.895,128.283 L491.895,138.346 L489.215,138.346 L489.215,128.459 C489.215,127.502 489.073,126.73 488.79,126.144 C488.321,125.168 487.472,124.679 486.241,124.679 C485.616,124.679 485.103,124.743 484.703,124.87 C483.98,125.085 483.346,125.514 482.799,126.159 C482.359,126.676 482.074,127.211 481.942,127.763 C481.81,128.315 481.744,129.103 481.744,130.128 L481.744,138.346 L479.107,138.346 L479.107,122.658 M497.449,130.685 C497.449,132.365 497.806,133.771 498.518,134.904 C499.231,136.037 500.374,136.603 501.946,136.603 C503.167,136.603 504.17,136.078 504.956,135.028 C505.743,133.979 506.136,132.472 506.136,130.509 C506.136,128.527 505.73,127.06 504.92,126.107 C504.109,125.155 503.108,124.679 501.917,124.679 C500.589,124.679 499.512,125.187 498.687,126.203 C497.862,127.218 497.449,128.712 497.449,130.685 M501.419,122.379 C502.62,122.379 503.626,122.633 504.436,123.141 C504.905,123.434 505.437,123.947 506.033,124.679 L506.033,116.754 L508.567,116.754 L508.567,138.346 L506.194,138.346 L506.194,136.164 C505.579,137.13 504.851,137.829 504.012,138.258 C503.172,138.688 502.21,138.903 501.126,138.903 C499.378,138.903 497.864,138.168 496.585,136.698 C495.306,135.229 494.666,133.273 494.666,130.832 C494.666,128.546 495.249,126.566 496.416,124.892 C497.583,123.217 499.251,122.379 501.419,122.379 Z" style="stroke:none;fill-rule:nonzero;fill:#ffffff;fill-opacity:1;"/>
        </g>
        <g id="Shape2">
            <desc shapeID="2" type="0" basicInfo-basicType="0" basicInfo-roundedRectRadius="12" basicInfo-polygonSides="6" basicInfo-starPoints="5" bounding="rect(-31.5599,-19.8201,63.1199,39.6402)" text="" font-familyName="" font-pixelSize="20" font-bold="0" font-underline="0" font-alignment="1" strokeStyle="0" markerStart="0" markerEnd="0" shadowEnabled="0" shadowOffsetX="0" shadowOffsetY="2" shadowBlur="4" shadowOpacity="160" blurEnabled="0" blurRadius="4" transform="matrix(1.24064,0.417163,-0.417163,1.24064,91.3218,68.9643)" pers-center="0,0" pers-size="0,0" pers-start="0,0" pers-end="0,0" locked="0" mesh="" flag=""/>
            <path id="shapePath2" d="M64.0209,32.4147 L135.171,56.3387 C137.145,57.0028 138.206,59.1397 137.543,61.1137 L123.409,103.146 C122.746,105.12 120.608,106.182 118.635,105.518 L47.4846,81.5938 C45.5044,80.9277 44.4389,78.7828 45.1047,76.8028 L59.2299,34.7947 C59.8957,32.8137 62.0407,31.7488 64.0209,32.4147 Z" style="stroke:none;fill-rule:evenodd;fill:#3a556a;fill-opacity:1;"/>
        </g>
        <g id="Shape3">
            <desc shapeID="3" type="0" basicInfo-basicType="0" basicInfo-roundedRectRadius="12" basicInfo-polygonSides="6" basicInfo-starPoints="5" bounding="rect(-25.2951,-17.1602,50.5902,34.3205)" text="" font-familyName="" font-pixelSize="20" font-bold="0" font-underline="0" font-alignment="1" strokeStyle="0" markerStart="0" markerEnd="0" shadowEnabled="0" shadowOffsetX="0" shadowOffsetY="2" shadowBlur="4" shadowOpacity="160" blurEnabled="0" blurRadius="4" transform="matrix(1.24064,0.417163,-0.417163,1.24064,90.8195,68.7952)" pers-center="0,0" pers-size="0,0" pers-start="0,0" pers-end="0,0" locked="0" mesh="" flag=""/>
            <path id="shapePath3" d="M66.5959,36.9537 L129.36,58.0577 L115.043,100.637 L52.2789,79.5328 L66.5959,36.9537 Z" style="stroke:none;fill-rule:evenodd;fill:#d5d6db;fill-opacity:1;"/>
        </g>
        <g id="Shape4">
            <desc shapeID="4" type="0" basicInfo-basicType="0" basicInfo-roundedRectRadius="12" basicInfo-polygonSides="6" basicInfo-starPoints="5" bounding="rect(-11.4789,-17.4702,22.9578,34.9404)" text="" font-familyName="" font-pixelSize="20" font-bold="0" font-underline="0" font-alignment="1" strokeStyle="0" markerStart="0" markerEnd="0" shadowEnabled="0" shadowOffsetX="0" shadowOffsetY="2" shadowBlur="4" shadowOpacity="160" blurEnabled="0" blurRadius="4" transform="matrix(1.24064,0.417163,-0.417163,1.24064,48.3624,80.9498)" pers-center="0,0" pers-size="0,0" pers-start="0,0" pers-end="0,0" locked="0" mesh="" flag=""/>
            <path id="shapePath4" d="M64.0718,76.2067 C61.4837,75.4967 58.7143,75.9717 56.5103,77.5027 L50.2932,82.3167 L44.391,79.0477 L51.5079,57.8827 L43.2146,63.6148 C41.9257,64.5127 40.8926,65.7307 40.2169,67.1498 L29.8244,88.9397 L44.0038,103.609 L52.4426,94.4877 C54.1996,91.7967 56.1152,89.2127 58.1789,86.7497 C60.5919,83.6807 63.0244,81.0047 64.5685,79.3287 C64.9906,78.8777 65.1806,78.2567 65.0836,77.6458 C64.9865,77.0358 64.6131,76.5047 64.0718,76.2067 Z" style="stroke:none;fill-rule:evenodd;fill:#fcd462;fill-opacity:1;"/>
        </g>
        <g id="Shape5">
            <desc shapeID="5" type="0" basicInfo-basicType="0" basicInfo-roundedRectRadius="12" basicInfo-polygonSides="6" basicInfo-starPoints="5" bounding="rect(-10.651,-7.81492,21.302,15.6299)" text="" font-familyName="" font-pixelSize="20" font-bold="0" font-underline="0" font-alignment="1" strokeStyle="0" markerStart="0" markerEnd="0" shadowEnabled="0" shadowOffsetX="0" shadowOffsetY="2" shadowBlur="4" shadowOpacity="160" blurEnabled="0" blurRadius="4" transform="matrix(1.24064,0.417163,-0.417163,1.24064,35.1793,97.9683)" pers-center="0,0" pers-size="0,0" pers-start="0,0" pers-end="0,0" locked="0" mesh="" flag=""/>
            <path id="shapePath5" d="M22,93.4217 L29.4606,85.2537 L48.3586,102.515 L40.898,110.683 L22,93.4217 Z" style="stroke:none;fill-rule:evenodd;fill:#3a556a;fill-opacity:1;"/>
        </g>
        <g id="Shape6">
            <desc shapeID="6" type="0" basicInfo-basicType="0" basicInfo-roundedRectRadius="12" basicInfo-polygonSides="6" basicInfo-starPoints="5" bounding="rect(-1.59032,-1.5898,3.18066,3.17961)" text="" font-familyName="" font-pixelSize="20" font-bold="0" font-underline="0" font-alignment="1" strokeStyle="0" markerStart="0" markerEnd="0" shadowEnabled="0" shadowOffsetX="0" shadowOffsetY="2" shadowBlur="4" shadowOpacity="160" blurEnabled="0" blurRadius="4" transform="matrix(1.24064,0.417163,-0.417163,1.24064,126.117,80.8432)" pers-center="0,0" pers-size="0,0" pers-start="0,0" pers-end="0,0" locked="0" mesh="" flag=""/>
            <path id="shapePath6" d="M128.09,81.5067 C127.723,82.5957 126.543,83.1827 125.454,82.8157 C124.364,82.4497 123.778,81.2698 124.144,80.1797 C124.511,79.0908 125.691,78.5047 126.78,78.8708 C127.87,79.2367 128.456,80.4177 128.09,81.5067 Z" style="stroke:none;fill-rule:evenodd;fill:#64798a;fill-opacity:1;"/>
        </g>
        <g id="Shape7">
            <desc shapeID="7" type="0" basicInfo-basicType="0" basicInfo-roundedRectRadius="12" basicInfo-polygonSides="6" basicInfo-starPoints="5" bounding="rect(-0.63502,-2.59016,1.27004,5.18033)" text="" font-familyName="" font-pixelSize="20" font-bold="0" font-underline="0" font-alignment="1" strokeStyle="0" markerStart="0" markerEnd="0" shadowEnabled="0" shadowOffsetX="0" shadowOffsetY="2" shadowBlur="4" shadowOpacity="160" blurEnabled="0" blurRadius="4" transform="matrix(1.24064,0.417163,-0.417163,1.24064,56.1614,55.1113)" pers-center="0,0" pers-size="0,0" pers-start="0,0" pers-end="0,0" locked="0" mesh="" flag=""/>
            <path id="shapePath7" d="M56.454,51.6337 L58.0295,52.1627 L55.8687,58.5897 L54.2931,58.0597 L56.454,51.6337 Z" style="stroke:none;fill-rule:evenodd;fill:#64798a;fill-opacity:1;"/>
        </g>
        <g id="Shape8">
            <desc shapeID="8" type="0" basicInfo-basicType="0" basicInfo-roundedRectRadius="12" basicInfo-polygonSides="6" basicInfo-starPoints="5" bounding="rect(-8.72098,-5.18468,17.4419,10.3693)" text="" font-familyName="" font-pixelSize="20" font-bold="0" font-underline="0" font-alignment="1" strokeStyle="0" markerStart="0" markerEnd="0" shadowEnabled="0" shadowOffsetX="0" shadowOffsetY="2" shadowBlur="4" shadowOpacity="160" blurEnabled="0" blurRadius="4" transform="matrix(1.24064,0.417163,-0.417163,1.24064,92.0872,65.3339)" pers-center="0,0" pers-size="0,0" pers-start="0,0" pers-end="0,0" locked="0" mesh="" flag=""/>
            <path id="shapePath8" d="M102.557,69.7597 C102.019,70.1077 101.316,70.0617 100.828,69.6467 C100.365,69.2287 100.094,68.6377 100.079,68.0147 C100.079,67.3867 100.181,66.7637 100.381,66.1687 C100.75,64.9097 101.218,63.6817 101.782,62.4967 C101.942,62.1977 101.912,61.8317 101.705,61.5627 C101.497,61.2927 101.151,61.1707 100.821,61.2487 L98.096,61.7137 C96.4544,61.5847 94.8166,62.0057 93.4405,62.9097 C93.1649,63.1047 92.9068,63.3227 92.6689,63.5617 C92.6196,63.2257 92.5415,62.8947 92.4356,62.5717 C91.8931,61.0207 90.8457,59.6957 89.4611,58.8097 L87.5211,56.7767 C87.3061,56.5547 86.9862,56.4687 86.689,56.5537 C86.3918,56.6387 86.1655,56.8807 86.1003,57.1827 C85.8311,58.4667 85.4625,59.7277 84.9977,60.9547 C84.8038,61.5517 84.5082,62.1117 84.1241,62.6077 C83.7349,63.0957 83.1625,63.4027 82.5408,63.4567 C81.9006,63.4917 81.313,63.1037 81.0946,62.5007 C80.4485,63.5627 80.3692,64.8747 80.8826,66.0057 C81.4137,67.1117 82.1863,68.0847 83.1434,68.8517 C83.8448,69.5367 84.7121,70.0277 85.6602,70.2777 C86.9425,70.4067 88.2293,70.0817 89.2969,69.3607 C89.9542,68.9928 90.5665,68.5497 91.1215,68.0407 C91.251,68.7827 91.4715,69.5067 91.7782,70.1947 C92.1965,71.4427 93.0445,72.5007 94.171,73.1807 C95.0775,73.5547 96.0655,73.6877 97.0384,73.5647 C98.2615,73.5347 99.4614,73.2247 100.547,72.6597 C101.658,72.0877 102.411,71.0007 102.557,69.7597 Z" style="stroke:none;fill-rule:evenodd;fill:#3a556a;fill-opacity:1;"/>
        </g>
        <g id="Shape9">
            <desc shapeID="9" type="0" basicInfo-basicType="0" basicInfo-roundedRectRadius="12" basicInfo-polygonSides="6" basicInfo-starPoints="5" bounding="rect(-6.43015,-6.42993,12.8603,12.8599)" text="" font-familyName="" font-pixelSize="20" font-bold="0" font-underline="0" font-alignment="1" strokeStyle="0" markerStart="0" markerEnd="0" shadowEnabled="0" shadowOffsetX="0" shadowOffsetY="2" shadowBlur="4" shadowOpacity="160" blurEnabled="0" blurRadius="4" transform="matrix(1.24064,0.417163,-0.417163,1.24064,94.2335,58.8681)" pers-center="0,0" pers-size="0,0" pers-start="0,0" pers-end="0,0" locked="0" mesh="" flag=""/>
            <path id="shapePath9" d="M96.9033,50.8867 C92.4968,49.4127 87.7295,51.7887 86.2533,56.1937 C84.7768,60.5997 87.1501,65.3677 91.5551,66.8467 C95.9599,68.3257 100.73,65.9547 102.211,61.5507 C102.923,59.4327 102.763,57.1187 101.768,55.1177 C100.772,53.1177 99.0222,51.5957 96.9033,50.8867 Z" style="stroke:none;fill-rule:evenodd;fill:#3a556a;fill-opacity:1;"/>
        </g>
        <g id="Shape10">
            <desc shapeID="10" type="0" basicInfo-basicType="0" basicInfo-roundedRectRadius="12" basicInfo-polygonSides="6" basicInfo-starPoints="5" bounding="rect(-4.47502,-3.71021,8.95004,7.42041)" text="" font-familyName="" font-pixelSize="20" font-bold="0" font-underline="0" font-alignment="1" strokeStyle="0" markerStart="0" markerEnd="0" shadowEnabled="0" shadowOffsetX="0" shadowOffsetY="2" shadowBlur="4" shadowOpacity="160" blurEnabled="0" blurRadius="4" transform="matrix(1.24064,0.417163,-0.417163,1.24064,90.7219,69.7014)" pers-center="0,0" pers-size="0,0" pers-start="0,0" pers-end="0,0" locked="0" mesh="" flag=""/>
            <path id="shapePath10" d="M94.2967,70.9587 L95.4231,67.6087 L92.1474,65.0717 L92.1516,65.0587 L92.1474,65.0717 L92.1393,65.0547 L92.1351,65.0667 L87.9918,65.1097 L86.8654,68.4597 L84.8613,68.7527 L83.6224,72.4377 L94.7261,76.1707 L95.9232,72.6108 L94.2967,70.9587 Z" style="stroke:none;fill-rule:evenodd;fill:#f7be56;fill-opacity:1;"/>
        </g>
        <g id="Shape11">
            <desc shapeID="11" type="0" basicInfo-basicType="0" basicInfo-roundedRectRadius="12" basicInfo-polygonSides="6" basicInfo-starPoints="5" bounding="rect(-11.565,-6.00496,23.13,12.0099)" text="" font-familyName="" font-pixelSize="20" font-bold="0" font-underline="0" font-alignment="1" strokeStyle="0" markerStart="0" markerEnd="0" shadowEnabled="0" shadowOffsetX="0" shadowOffsetY="2" shadowBlur="4" shadowOpacity="160" blurEnabled="0" blurRadius="4" transform="matrix(1.24064,0.417163,-0.417163,1.24064,88.1214,77.1882)" pers-center="0,0" pers-size="0,0" pers-start="0,0" pers-end="0,0" locked="0" mesh="" flag=""/>
            <path id="shapePath11" d="M99.9644,89.4627 L101.819,81.5247 C102.166,80.0447 101.73,78.4897 100.662,77.4077 L95.5147,72.1827 L94.3423,70.9877 C93.2284,72.3207 91.4112,72.8337 89.7651,72.2797 C88.1189,71.7267 86.9808,70.2197 86.8985,68.4847 L85.2546,68.7327 L77.996,69.7857 C76.4913,70.0037 75.204,70.9787 74.5868,72.3677 L71.2684,79.8137 L99.9644,89.4627 Z" style="stroke:none;fill-rule:evenodd;fill:#029bc5;fill-opacity:1;"/>
        </g>
        <g id="Shape12">
            <desc shapeID="12" type="0" basicInfo-basicType="0" basicInfo-roundedRectRadius="12" basicInfo-polygonSides="6" basicInfo-starPoints="5" bounding="rect(-4.85998,-6.44505,9.71996,12.8901)" text="" font-familyName="" font-pixelSize="20" font-bold="0" font-underline="0" font-alignment="1" strokeStyle="0" markerStart="0" markerEnd="0" shadowEnabled="0" shadowOffsetX="0" shadowOffsetY="2" shadowBlur="4" shadowOpacity="160" blurEnabled="0" blurRadius="4" transform="matrix(1.24064,0.417163,-0.417163,1.24064,93.5096,61.0207)" pers-center="0,0" pers-size="0,0" pers-start="0,0" pers-end="0,0" locked="0" mesh="" flag=""/>
            <path id="shapePath12" d="M96.1982,53.0247 C92.8609,51.9027 88.963,54.5827 87.478,58.9997 C85.9929,63.4157 87.4836,67.8947 90.821,69.0167 C94.1582,70.1387 98.0518,67.4707 99.5369,63.0547 C101.022,58.6377 99.523,54.1427 96.1982,53.0247 Z" style="stroke:none;fill-rule:evenodd;fill:#fcd462;fill-opacity:1;"/>
        </g>
        <g id="Shape13">
            <desc shapeID="13" type="0" basicInfo-basicType="0" basicInfo-roundedRectRadius="12" basicInfo-polygonSides="6" basicInfo-starPoints="5" bounding="rect(-4.32983,-2.60865,8.65965,5.21732)" text="" font-familyName="" font-pixelSize="20" font-bold="0" font-underline="0" font-alignment="1" strokeStyle="0" markerStart="0" markerEnd="0" shadowEnabled="0" shadowOffsetX="0" shadowOffsetY="2" shadowBlur="4" shadowOpacity="160" blurEnabled="0" blurRadius="4" transform="matrix(1.24064,0.417163,-0.417163,1.24064,96.3952,55.4364)" pers-center="0,0" pers-size="0,0" pers-start="0,0" pers-end="0,0" locked="0" mesh="" flag=""/>
            <path id="shapePath13" d="M91.2772,52.8757 C91.2772,52.8757 91.9012,58.0007 100.69,60.4457 L100.78,56.0707 L98.4635,52.5297 L95.5108,51.5367 L91.2772,52.8757 Z" style="stroke:none;fill-rule:evenodd;fill:#3a556a;fill-opacity:1;"/>
        </g>
        <g id="Shape14">
            <desc shapeID="14" type="0" basicInfo-basicType="0" basicInfo-roundedRectRadius="12" basicInfo-polygonSides="6" basicInfo-starPoints="5" bounding="rect(-15.4454,-18.0058,30.8907,36.0118)" text="" font-familyName="" font-pixelSize="20" font-bold="0" font-underline="0" font-alignment="1" strokeStyle="0" markerStart="0" markerEnd="0" shadowEnabled="0" shadowOffsetX="0" shadowOffsetY="2" shadowBlur="4" shadowOpacity="160" blurEnabled="0" blurRadius="4" transform="matrix(1.24064,0.417163,-0.417163,1.24064,106.447,101.536)" pers-center="0,0" pers-size="0,0" pers-start="0,0" pers-end="0,0" locked="0" mesh="" flag=""/>
            <path id="shapePath14" d="M115.928,89.6658 C114.313,89.8587 113.149,91.3097 113.312,92.9288 L113.138,91.3517 C112.93,89.7027 111.425,88.5357 109.776,88.7437 C108.127,88.9517 106.96,90.4567 107.168,92.1058 C107.02,90.7297 105.945,89.6357 104.572,89.4637 C103.199,89.2908 101.887,90.0857 101.404,91.3827 L99.6435,76.0848 C99.3932,74.4957 97.9337,73.3877 96.3363,73.5737 C94.7388,73.7598 93.5727,75.1727 93.6938,76.7767 L97.0974,106.285 L93.2413,104.119 L94.1446,102.172 C95.0535,99.6157 94.3955,96.7648 92.4584,94.8657 C92.2374,94.6387 91.9183,94.5357 91.6064,94.5918 C91.2945,94.6467 91.0305,94.8537 90.9014,95.1428 L86.8039,104.536 C86.0945,106.331 86.7945,108.375 88.4552,109.359 L99.581,118.858 L101.548,124.753 L121.068,121.485 L121.248,109.78 L119.233,92.2827 C119.041,90.6487 117.562,89.4787 115.928,89.6658 Z" style="stroke:none;fill-rule:evenodd;fill:#fcd462;fill-opacity:1;"/>
        </g>
        <g id="Shape15">
            <desc shapeID="15" type="0" basicInfo-basicType="0" basicInfo-roundedRectRadius="12" basicInfo-polygonSides="6" basicInfo-starPoints="5" bounding="rect(-9.40076,-7.25764,18.8016,14.5152)" text="" font-familyName="" font-pixelSize="20" font-bold="0" font-underline="0" font-alignment="1" strokeStyle="0" markerStart="0" markerEnd="0" shadowEnabled="0" shadowOffsetX="0" shadowOffsetY="2" shadowBlur="4" shadowOpacity="160" blurEnabled="0" blurRadius="4" transform="matrix(1.24064,0.417163,-0.417163,1.24064,111.032,123.266)" pers-center="0,0" pers-size="0,0" pers-start="0,0" pers-end="0,0" locked="0" mesh="" flag=""/>
            <path id="shapePath15" d="M99.3848,119.299 L121.473,116.755 L122.68,127.234 L100.592,129.778 L99.3848,119.299 Z" style="stroke:none;fill-rule:evenodd;fill:#3a556a;fill-opacity:1;"/>
        </g>
        <g id="Shape16">
            <desc shapeID="16" type="2" basicInfo-basicType="0" basicInfo-roundedRectRadius="12" basicInfo-polygonSides="6" basicInfo-starPoints="5" bounding="rect(-288.053,-44.4755,576.107,88.951)" text="Valley                                 .com" font-familyName="Helvetica" font-pixelSize="38" font-bold="1" font-underline="0" font-alignment="0" strokeStyle="0" markerStart="0" markerEnd="0" shadowEnabled="0" shadowOffsetX="0" shadowOffsetY="2" shadowBlur="4" shadowOpacity="160" blurEnabled="0" blurRadius="4" transform="matrix(1,0,-0.328969,0.944341,443.73,84.8003)" pers-center="0,0" pers-size="0,0" pers-start="0,0" pers-end="0,0" locked="0" mesh="" flag=""/>
            <path id="shapePath16" d="M180.37,68.2098 L186.307,68.2098 L167.977,94.0371 L162.578,94.0371 L162.335,68.2098 L168.439,68.2098 L167.546,87.8168 L180.37,68.2098 M192.585,84.7505 C192.182,84.9491 191.789,85.1097 191.406,85.2324 C191.023,85.355 190.517,85.4689 189.886,85.574 L188.626,85.7843 C187.447,85.9712 186.57,86.199 185.994,86.4677 C185.019,86.9232 184.364,87.6299 184.031,88.5878 C183.734,89.4405 183.77,90.0567 184.138,90.4364 C184.507,90.816 185.05,91.0058 185.767,91.0058 C186.905,91.0058 188.064,90.6904 189.242,90.0597 C190.421,89.4289 191.319,88.2783 191.938,86.6078 L192.585,84.7505 M190.187,82.4201 C191.205,82.3033 191.955,82.1572 192.436,81.982 C193.297,81.6783 193.839,81.2052 194.063,80.5628 C194.335,79.7801 194.236,79.2398 193.764,78.942 C193.293,78.6441 192.501,78.4952 191.387,78.4952 C190.138,78.4952 189.152,78.7872 188.429,79.3713 C187.907,79.8035 187.456,80.3875 187.076,81.1235 L181.974,81.1235 C182.667,79.453 183.64,78.0805 184.893,77.0058 C186.876,75.3237 189.569,74.4826 192.971,74.4826 C195.185,74.4826 197.007,74.8973 198.438,75.7267 C199.868,76.5561 200.183,78.1214 199.381,80.4226 L196.329,89.1836 C196.117,89.791 195.873,90.5269 195.597,91.3913 C195.406,92.0455 195.357,92.4894 195.449,92.723 C195.54,92.9566 195.733,93.1494 196.026,93.3012 L195.77,94.0371 L190.018,94.0371 C189.992,93.6516 190.006,93.2895 190.063,92.9508 C190.119,92.612 190.204,92.2265 190.317,91.7943 C189.327,92.5419 188.264,93.1786 187.128,93.7042 C185.775,94.3233 184.38,94.6329 182.945,94.6329 C181.115,94.6329 179.774,94.1393 178.925,93.1523 C178.075,92.1652 177.965,90.7664 178.596,88.9558 C179.414,86.6078 180.965,84.9082 183.248,83.8569 C184.499,83.2845 186.188,82.8757 188.314,82.6303 L190.187,82.4201 M204.723,94.0371 L199.435,94.0371 L208.432,68.2098 L213.72,68.2098 L204.723,94.0371 M215.27,94.0371 L209.982,94.0371 L218.979,68.2098 L224.267,68.2098 L215.27,94.0371 M233.792,78.5477 C232.567,78.5477 231.492,78.9099 230.565,79.6341 C229.639,80.3583 228.873,81.3396 228.269,82.5778 L236.489,82.5778 C236.862,81.2578 236.787,80.2561 236.264,79.5728 C235.742,78.8894 234.918,78.5477 233.792,78.5477 M235.226,74.4301 C236.909,74.4301 238.32,74.728 239.461,75.3237 C240.602,75.9194 241.387,76.8598 241.818,78.1447 C242.215,79.2778 242.271,80.592 241.985,82.0872 C241.816,82.9633 241.432,84.2248 240.833,85.8719 L226.991,85.8719 C226.398,87.7876 226.567,89.131 227.499,89.902 C228.062,90.3809 228.857,90.6204 229.883,90.6204 C230.972,90.6204 231.958,90.3283 232.842,89.7443 C233.323,89.4289 233.803,88.9908 234.283,88.4301 L239.682,88.4301 C239.152,89.5632 238.126,90.7138 236.606,91.8819 C234.227,93.7393 231.479,94.6679 228.362,94.6679 C225.789,94.6679 223.792,93.8853 222.37,92.32 C220.949,90.7547 220.852,88.2082 222.081,84.6804 C223.233,81.3746 225.004,78.8398 227.393,77.0759 C229.783,75.312 232.394,74.4301 235.226,74.4301 M241.083,97.6992 L241.739,97.7343 C242.25,97.7576 242.751,97.7401 243.242,97.6817 C243.732,97.6233 244.175,97.489 244.57,97.2787 C244.948,97.0801 245.38,96.6654 245.866,96.0346 C246.351,95.4038 246.594,95.0184 246.593,94.8782 L246.118,74.9382 L252,74.9382 L251.508,89.0259 L260.59,74.9382 L266.212,74.9382 L252.73,93.7217 C250.132,97.3429 248.292,99.5887 247.21,100.459 C246.127,101.329 244.417,101.764 242.079,101.764 C241.609,101.764 241.233,101.761 240.95,101.756 C240.668,101.75 240.248,101.729 239.692,101.694 L241.083,97.6992 M612.441,88.8156 L618.063,88.8156 L616.244,94.0371 L610.622,94.0371 L612.441,88.8156 M637.607,81.7893 C637.756,81.0767 637.727,80.4343 637.518,79.8619 C637.193,79.0909 636.405,78.7054 635.156,78.7054 C633.375,78.7054 631.865,79.5406 630.628,81.2111 C629.972,82.0988 629.388,83.2787 628.875,84.7505 C628.387,86.1523 628.167,87.2795 628.217,88.1322 C628.294,89.7209 629.205,90.5152 630.949,90.5152 C632.186,90.5152 633.174,90.1998 633.914,89.569 C634.653,88.9382 635.253,88.1206 635.714,87.116 L641.114,87.116 C640.461,88.6345 639.379,90.0713 637.868,91.4264 C635.45,93.6108 632.614,94.703 629.36,94.703 C626.107,94.703 624.031,93.7918 623.132,91.9695 C622.233,90.1473 622.29,87.7818 623.303,84.8732 C624.447,81.5907 626.183,79.0383 628.513,77.2161 C630.842,75.3938 633.497,74.4826 636.479,74.4826 C639.014,74.4826 640.902,75.02 642.142,76.0947 C643.382,77.1693 643.676,79.0676 643.025,81.7893 L637.607,81.7893 M652.686,90.5152 C654.233,90.5152 655.601,89.9954 656.792,88.9558 C657.983,87.9161 658.912,86.4384 659.58,84.5227 C660.247,82.607 660.346,81.1322 659.878,80.0984 C659.409,79.0646 658.402,78.5477 656.855,78.5477 C655.309,78.5477 653.939,79.0646 652.743,80.0984 C651.548,81.1322 650.617,82.607 649.95,84.5227 C649.282,86.4384 649.185,87.9161 649.658,88.9558 C650.131,89.9954 651.14,90.5152 652.686,90.5152 M665.128,84.5227 C664.151,87.3262 662.462,89.7238 660.061,91.7155 C657.66,93.7071 654.722,94.703 651.246,94.703 C647.77,94.703 645.526,93.7071 644.512,91.7155 C643.499,89.7238 643.481,87.3262 644.458,84.5227 C645.418,81.7659 647.104,79.3771 649.515,77.3562 C651.926,75.3354 654.869,74.3249 658.345,74.3249 C661.821,74.3249 664.06,75.3354 665.063,77.3562 C666.067,79.3771 666.088,81.7659 665.128,84.5227 M694.989,74.5177 C695.879,74.5177 696.701,74.6812 697.453,75.0083 C698.205,75.3354 698.791,75.9078 699.211,76.7254 C699.548,77.3913 699.647,78.209 699.507,79.1785 C699.407,79.821 699.141,80.7613 698.71,81.9996 L694.479,94.0371 L689.061,94.0371 L693.297,81.8769 C693.55,81.1527 693.633,80.5569 693.549,80.0897 C693.388,79.2019 692.677,78.758 691.415,78.758 C689.955,78.758 688.748,79.3304 687.792,80.4751 C687.296,81.0826 686.9,81.8127 686.603,82.6654 L682.641,94.0371 L677.316,94.0371 L681.277,82.6654 C681.672,81.5323 681.835,80.7088 681.767,80.1948 C681.643,79.272 680.932,78.8106 679.633,78.8106 C678.124,78.8106 676.949,79.272 676.108,80.1948 C675.64,80.7205 675.225,81.5031 674.863,82.5427 L670.859,94.0371 L665.497,94.0371 L672.138,74.9733 L677.277,74.9733 L676.307,77.7592 C677.308,76.7663 678.173,76.0596 678.901,75.6391 C680.188,74.8915 681.648,74.5177 683.281,74.5177 C684.827,74.5177 685.964,74.8389 686.693,75.4814 C687.253,76.0771 687.567,76.8423 687.638,77.7768 C688.721,76.6554 689.868,75.8318 691.077,75.3062 C692.349,74.7805 693.653,74.5177 694.989,74.5177 Z" style="stroke:none;fill-rule:nonzero;fill:#ffffff;fill-opacity:1;"/>
        </g>
        <g id="Shape17">
            <desc shapeID="17" type="2" basicInfo-basicType="0" basicInfo-roundedRectRadius="12" basicInfo-polygonSides="6" basicInfo-starPoints="5" bounding="rect(-126.5,-41.2987,253,82.5973)" text="Video" font-familyName="Verdana" font-pixelSize="59" font-bold="1" font-underline="0" font-alignment="0" strokeStyle="0" markerStart="0" markerEnd="0" shadowEnabled="0" shadowOffsetX="0" shadowOffsetY="2" shadowBlur="4" shadowOpacity="160" blurEnabled="0" blurRadius="4" transform="matrix(1,0,-0.328969,0.944341,395.809,74.6173)" pers-center="0,0" pers-size="0,0" pers-start="0,0" pers-end="0,0" locked="0" mesh="" flag=""/>
            <path id="shapePath17" d="M320.214,55.8435 L290.46,96.3519 L278.072,96.3519 L276.54,55.8435 L288.15,55.8435 L288.608,84.3 L308.892,55.8435 L320.214,55.8435 M322.053,96.3519 L311.682,96.3519 L322.325,65.8005 L332.696,65.8005 L322.053,96.3519 M334.5,61.4477 L323.553,61.4477 L326.14,54.0207 L337.087,54.0207 L334.5,61.4477 M363.297,96.3519 L352.926,96.3519 L354.035,93.1689 C351.769,94.5473 349.744,95.5629 347.961,96.2159 C346.178,96.8688 344.268,97.1953 342.232,97.1953 C338.295,97.1953 335.645,95.7625 334.281,92.8968 C332.916,90.0312 333.081,86.1681 334.774,81.3075 C335.678,78.7139 336.877,76.4151 338.372,74.411 C339.868,72.4068 341.556,70.6884 343.438,69.2556 C345.218,67.8953 347.17,66.8389 349.296,66.0862 C351.421,65.3335 353.415,64.9572 355.278,64.9572 C357.217,64.9572 358.739,65.1521 359.842,65.5421 C360.945,65.932 362.045,66.4263 363.142,67.0248 L367.672,54.0207 L378.044,54.0207 L363.297,96.3519 M355.864,87.9183 L361.086,72.9283 C360.457,72.6381 359.762,72.4295 358.999,72.3026 C358.237,72.1756 357.519,72.1121 356.847,72.1121 C354.12,72.1121 351.795,72.9147 349.872,74.5198 C347.949,76.1249 346.492,78.3512 345.5,81.1986 C344.458,84.1912 344.249,86.3631 344.873,87.7143 C345.497,89.0655 347.019,89.7411 349.438,89.7411 C350.38,89.7411 351.437,89.5733 352.61,89.2378 C353.783,88.9022 354.868,88.4624 355.864,87.9183 M409.642,82.8854 L385.903,82.8854 C385.223,85.2794 385.55,87.1112 386.884,88.3808 C388.219,89.6504 390.614,90.2851 394.071,90.2851 C396.261,90.2851 398.512,89.9133 400.826,89.1697 C403.141,88.4261 405.041,87.6281 406.529,86.7757 L407.681,86.7757 L404.943,94.638 C402.29,95.5267 399.857,96.1705 397.644,96.5695 C395.43,96.9685 393.066,97.168 390.55,97.168 C384.058,97.168 379.564,95.7897 377.068,93.0329 C374.571,90.2761 374.21,86.3495 375.986,81.2531 C377.742,76.211 380.771,72.2164 385.072,69.2692 C389.373,66.322 394.376,64.8484 400.08,64.8484 C405.343,64.8484 408.861,66.1043 410.637,68.6163 C412.412,71.1282 412.478,74.742 410.836,79.4575 L409.642,82.8854 M401.328,77.1451 C401.984,75.0956 401.983,73.554 401.326,72.5202 C400.668,71.4864 399.263,70.9695 397.112,70.9695 C395.115,70.9695 393.302,71.4592 391.674,72.4386 C390.046,73.418 388.78,74.9868 387.874,77.1451 L401.328,77.1451 M450.649,81.0898 C448.899,86.1137 445.969,90.072 441.86,92.9649 C437.75,95.8577 432.891,97.3041 427.283,97.3041 C421.675,97.3041 417.824,95.8577 415.73,92.9649 C413.636,90.072 413.464,86.1137 415.214,81.0898 C416.977,76.0297 419.921,72.0577 424.047,69.174 C428.172,66.2902 433.02,64.8484 438.59,64.8484 C444.236,64.8484 448.095,66.2993 450.167,69.2012 C452.238,72.1031 452.399,76.0659 450.649,81.0898 M435.299,88.5168 C436.243,87.7369 437.074,86.7984 437.793,85.7011 C438.511,84.6038 439.208,83.0849 439.884,81.1442 C440.51,79.3487 440.861,77.8433 440.939,76.6282 C441.017,75.413 440.875,74.4427 440.513,73.7172 C440.157,72.9736 439.601,72.4477 438.844,72.1393 C438.087,71.831 437.209,71.6768 436.211,71.6768 C435.212,71.6768 434.28,71.8038 433.413,72.0577 C432.547,72.3116 431.626,72.8195 430.65,73.5812 C429.77,74.2885 428.928,75.2589 428.123,76.4921 C427.319,77.7254 426.592,79.2761 425.941,81.1442 C425.36,82.8128 425.019,84.2592 424.919,85.4834 C424.819,86.7077 424.957,87.6916 425.331,88.4352 C425.7,89.1425 426.254,89.6594 426.995,89.9859 C427.736,90.3124 428.654,90.4756 429.749,90.4756 C430.69,90.4756 431.64,90.326 432.598,90.0267 C433.557,89.7274 434.458,89.2242 435.299,88.5168 Z" style="stroke:none;fill-rule:nonzero;fill:#ff8d55;fill-opacity:1;"/>
        </g>
        <g id="Shape18">
            <desc shapeID="18" type="2" basicInfo-basicType="0" basicInfo-roundedRectRadius="12" basicInfo-polygonSides="6" basicInfo-starPoints="5" bounding="rect(-56.5,-41.2987,113,82.5973)" text="Help" font-familyName="Verdana" font-pixelSize="59" font-bold="1" font-underline="0" font-alignment="0" strokeStyle="0" markerStart="0" markerEnd="0" shadowEnabled="0" shadowOffsetX="0" shadowOffsetY="2" shadowBlur="4" shadowOpacity="160" blurEnabled="0" blurRadius="4" transform="matrix(1,0,-0.328969,0.944341,515.698,75.3203)" pers-center="0,0" pers-size="0,0" pers-start="0,0" pers-end="0,0" locked="0" mesh="" flag=""/>
            <path id="shapePath18" d="M495.56,97.0549 L484.497,97.0549 L490.714,79.2083 L474.38,79.2083 L468.163,97.0549 L457.1,97.0549 L471.212,56.5465 L482.274,56.5465 L477.109,71.3732 L493.444,71.3732 L498.609,56.5465 L509.671,56.5465 L495.56,97.0549 M542.484,83.5883 L518.745,83.5883 C518.065,85.9824 518.392,87.8142 519.726,89.0838 C521.061,90.3534 523.456,90.9881 526.913,90.9881 C529.103,90.9881 531.354,90.6163 533.669,89.8727 C535.983,89.1291 537.883,88.3311 539.371,87.4787 L540.524,87.4787 L537.785,95.341 C535.132,96.2297 532.699,96.8735 530.486,97.2725 C528.273,97.6715 525.908,97.871 523.392,97.871 C516.901,97.871 512.406,96.4927 509.91,93.7359 C507.413,90.9791 507.052,87.0525 508.828,81.956 C510.584,76.914 513.613,72.9194 517.914,69.9722 C522.216,67.025 527.218,65.5514 532.922,65.5514 C538.185,65.5514 541.704,66.8073 543.479,69.3193 C545.254,71.8312 545.321,75.4449 543.678,80.1605 L542.484,83.5883 M534.17,77.8481 C534.826,75.7986 534.826,74.257 534.168,73.2232 C533.51,72.1894 532.106,71.6725 529.955,71.6725 C527.957,71.6725 526.145,72.1622 524.517,73.1416 C522.889,74.121 521.622,75.6898 520.716,77.8481 L534.17,77.8481 M555.473,97.0549 L545.102,97.0549 L559.849,54.7237 L570.22,54.7237 L555.473,97.0549 M604.49,81.3575 C603.612,83.8785 602.405,86.1728 600.868,88.2404 C599.332,90.308 597.667,92.0129 595.874,93.355 C593.999,94.7697 592.061,95.8397 590.06,96.5652 C588.06,97.2907 586.061,97.6534 584.064,97.6534 C582.22,97.6534 580.719,97.4675 579.562,97.0957 C578.405,96.7239 577.271,96.2025 576.16,95.5314 L571.725,108.263 L561.354,108.263 L575.901,66.5035 L586.272,66.5035 L585.164,69.6865 C587.175,68.4895 589.14,67.5192 591.061,66.7756 C592.981,66.032 595.026,65.6602 597.196,65.6602 C601.23,65.6602 603.879,67.0567 605.143,69.8498 C606.407,72.6428 606.19,76.4787 604.49,81.3575 M593.736,81.548 C594.772,78.5735 594.986,76.4153 594.378,75.0731 C593.77,73.731 592.304,73.06 589.981,73.06 C589.001,73.06 587.944,73.2005 586.809,73.4816 C585.674,73.7628 584.544,74.1663 583.42,74.6923 L578.065,90.0632 C578.668,90.3171 579.351,90.4803 580.113,90.5529 C580.875,90.6254 581.64,90.6617 582.408,90.6617 C585.155,90.6617 587.464,89.9045 589.336,88.3901 C591.208,86.8756 592.675,84.5949 593.736,81.548 Z" style="stroke:none;fill-rule:nonzero;fill:#029bc5;fill-opacity:1;"/>
        </g>
    </g>
</svg>
